<svg xmlns="http://www.w3.org/2000/svg" viewBox="0 0 640 700" width="640" height="700">
<defs>
<linearGradient id="frameA" x1="0" y1="0" x2="1" y2="1"><stop offset="0" stop-color="#f4f4f6"/><stop offset=".45" stop-color="#c9cbd1"/><stop offset="1" stop-color="#8e9099"/></linearGradient>
<linearGradient id="frameB" x1="0" y1="0" x2="1" y2="1"><stop offset="0" stop-color="#5d7096"/><stop offset=".5" stop-color="#34425f"/><stop offset="1" stop-color="#1c2438"/></linearGradient>
<linearGradient id="backB" x1="0" y1="0" x2="0" y2="1"><stop offset="0" stop-color="#3f4f70"/><stop offset="1" stop-color="#233049"/></linearGradient>
<radialGradient id="lens" cx=".4" cy=".35" r=".7"><stop offset="0" stop-color="#3b5bb0"/><stop offset=".45" stop-color="#121a33"/><stop offset="1" stop-color="#020308"/></radialGradient>
<linearGradient id="module" x1="0" y1="0" x2="1" y2="1"><stop offset="0" stop-color="#55688f"/><stop offset="1" stop-color="#2a3550"/></linearGradient>
<filter id="shadow" x="-30%" y="-30%" width="160%" height="160%"><feGaussianBlur stdDeviation="18"/></filter>
<clipPath id="screenA"><rect x="13" y="13" width="254" height="554" rx="34"/></clipPath>
<linearGradient id="wa-base" x1="0" y1="0" x2="1" y2="1"><stop offset="0" stop-color="#0b1440"/><stop offset="1" stop-color="#2a0b52"/></linearGradient>
<filter id="wa-blur" x="-50%" y="-50%" width="200%" height="200%"><feGaussianBlur stdDeviation="38"/></filter>
</defs>
<ellipse cx="330" cy="668" rx="230" ry="16" fill="#000" opacity=".18" filter="url(#shadow)"/>
<!-- back phone: rear view -->
<g transform="translate(70 70) rotate(-9 140 290)">
  <rect width="280" height="580" rx="46" fill="url(#frameB)"/>
  <rect x="5" y="5" width="270" height="570" rx="42" fill="url(#backB)"/>
  <rect x="5" y="5" width="270" height="570" rx="42" fill="none" stroke="#ffffff" stroke-opacity=".18" stroke-width="1.5"/>
  <circle cx="140" cy="96" r="62" fill="url(#module)" stroke="#8193b8" stroke-opacity=".6" stroke-width="1.5"/>
  <circle cx="140" cy="96" r="52" fill="none" stroke="#ffffff" stroke-opacity=".12" stroke-width="1"/>
  <g>
    <circle cx="112" cy="90" r="23" fill="#0d1120" stroke="#6c7a99" stroke-width="3"/><circle cx="112" cy="90" r="13" fill="url(#lens)"/><circle cx="108" cy="86" r="3" fill="#fff" opacity=".55"/>
    <circle cx="168" cy="90" r="23" fill="#0d1120" stroke="#6c7a99" stroke-width="3"/><circle cx="168" cy="90" r="13" fill="url(#lens)"/><circle cx="164" cy="86" r="3" fill="#fff" opacity=".55"/>
    <circle cx="140" cy="132" r="6" fill="#f1e6c8" opacity=".9"/>
  </g>
  <g transform="translate(140 320)" fill="none" stroke="#ffffff" stroke-opacity=".38"><circle r="22" stroke-width="3.5"/><circle r="7" fill="#ffffff" fill-opacity=".38" stroke="none"/></g>
  <rect x="277" y="170" width="5" height="70" rx="2.5" fill="#1c2438"/>
</g>
<!-- front phone -->
<g transform="translate(300 40) rotate(6 140 290)">
  <rect x="-3" y="140" width="5" height="44" rx="2.5" fill="#9a9ca4"/>
  <rect x="-3" y="196" width="5" height="44" rx="2.5" fill="#9a9ca4"/>
  <rect x="278" y="180" width="5" height="78" rx="2.5" fill="#9a9ca4"/>
  <rect width="280" height="580" rx="46" fill="url(#frameA)"/>
  <rect x="3" y="3" width="274" height="574" rx="43" fill="none" stroke="#fff" stroke-opacity=".7" stroke-width="1.5"/>
  <rect x="8" y="8" width="264" height="564" rx="38" fill="#08080b"/>
  <g clip-path="url(#screenA)"><g transform="translate(13 13)"><rect width="254" height="554" fill="url(#wa-base)"/><g filter="url(#wa-blur)"><circle cx="40" cy="150" r="110" fill="#00c6ff" opacity="0.9"/><circle cx="230" cy="300" r="95" fill="#ffd23f" opacity="0.85"/><circle cx="60" cy="430" r="130" fill="#ff5e3a" opacity="0.9"/><circle cx="220" cy="540" r="140" fill="#7b5cff" opacity="0.95"/></g></g>
    <rect x="13" y="13" width="254" height="554" fill="#000" opacity=".08"/>
  </g>
  <circle cx="140" cy="38" r="8" fill="#000"/><circle cx="142" cy="36" r="2" fill="#2a3a6a"/>
  <text x="140" y="104" text-anchor="middle" font-family="system-ui, 'Segoe UI', Roboto, 'Helvetica Neue', Arial, sans-serif" font-size="15" fill="#fff" fill-opacity=".85">Wednesday, October 7</text>
  <text x="140" y="182" text-anchor="middle" font-family="system-ui, 'Segoe UI', Roboto, 'Helvetica Neue', Arial, sans-serif" font-size="80" font-weight="600" fill="#fff" letter-spacing="-2">10:08</text>
  <rect x="38" y="470" width="88" height="56" rx="18" fill="#fff" fill-opacity=".18"/>
  <rect x="154" y="470" width="88" height="56" rx="18" fill="#fff" fill-opacity=".18"/>
  <circle cx="82" cy="498" r="11" fill="none" stroke="#fff" stroke-width="2.5" opacity=".85"/>
  <path d="M190 488 l8 10 -8 10 M206 488 v20" stroke="#fff" stroke-width="2.5" fill="none" stroke-linecap="round" opacity=".85"/>
  <rect x="100" y="548" width="80" height="5" rx="2.5" fill="#fff" fill-opacity=".85"/>
</g>
</svg>